<?xml version="1.0" encoding="utf-8"?>
<!-- Generator: Adobe Illustrator 24.0.0, SVG Export Plug-In . SVG Version: 6.00 Build 0)  -->
<svg version="1.1" id="Layer_1" xmlns="http://www.w3.org/2000/svg" xmlns:xlink="http://www.w3.org/1999/xlink" x="0px" y="0px"
	 viewBox="0 0 480.21 136.1" style="enable-background:new 0 0 480.21 136.1;" xml:space="preserve">
<style type="text/css">
	.st0{fill:none;}
	.st1{fill:#F2F2F2;}
	.st2{fill:#14445A;}
	.st3{fill:#E6E7E8;}
	.st4{fill:#DCDDDE;}
	.st5{fill:none;stroke:#DCDDDE;stroke-width:0.25;stroke-miterlimit:10;}
	.st6{fill:#FFFFFF;}
	.st7{fill:none;stroke:#6D6E71;stroke-width:0.5;stroke-miterlimit:10;}
</style>
<g>
	<g>
		<path class="st2" d="M222.17,98.68h-12.43v-3.43h3c-1.42-0.66-2.13-1.75-2.13-3.29c0-1.09,0.35-2.01,1.06-2.76
			c0.7-0.75,1.6-1.13,2.68-1.13h7.82v3.43h-5.81c-0.69,0-1.03,0.36-1.03,1.08c0,0.62,0.19,1.21,0.58,1.75
			c0.43,0.61,0.94,0.91,1.53,0.91h4.73V98.68z"/>
		<path class="st2" d="M234.4,98.63h-4.92v-27.1c0-1.29,0.54-2.41,1.63-3.36c1.1-0.75,2.2-1.5,3.29-2.26V98.63z"/>
		<path class="st2" d="M262.89,98.63h-6.38c0,0.32,0.01,0.81,0.03,1.47s0.04,1.17,0.04,1.52c0,2.73-0.81,4.59-2.42,5.56
			c-1.53,0.94-3.06,1.41-4.58,1.41c-1.68,0-3.37-0.54-5.06-1.63c-1.22-0.77-1.9-2.21-2.06-4.32h9.14v-4.03h-9.19v-5.11
			c0-4.41,1.53-7.62,4.6-9.62c0.84-0.56,2.08-0.92,3.71-1.08c1.71-0.19,2.78-0.41,3.22-0.65l2.57-1.42v12.11h6.38V98.63z
			 M251.55,92.87v-4.85c-1.14,0-2.13,0.41-2.98,1.24c-0.86,0.82-1.28,1.8-1.28,2.94c0,0.19,0.01,0.42,0.05,0.67H251.55z"/>
		<path class="st2" d="M275.14,98.63H256l3.43-5.76h15.71V98.63z"/>
		<path class="st2" d="M287.42,98.63h-19.14l3.43-5.76h15.71V98.63z"/>
		<path class="st2" d="M299.7,98.63h-19.14l3.43-5.76h15.71V98.63z"/>
		<path class="st2" d="M315.91,96.18c0,0.59-0.29,1.15-0.87,1.67c-0.59,0.52-1.17,0.78-1.77,0.78h-20.43l3.43-5.76H311
			c0-3.05,0.18-4.89,0.53-5.52c0.32-0.56,1.78-1.71,4.39-3.45V96.18z M306.83,105.75c0,0.72-0.23,1.31-0.68,1.76
			c-0.46,0.46-1.05,0.68-1.77,0.68c-0.73,0-1.33-0.23-1.77-0.68c-0.45-0.46-0.67-1.04-0.67-1.76c0-0.72,0.22-1.31,0.67-1.76
			c0.45-0.46,1.04-0.68,1.77-0.68c0.72,0,1.31,0.23,1.77,0.68C306.6,104.44,306.83,105.03,306.83,105.75z M315.17,105.75
			c0,0.72-0.23,1.31-0.67,1.76c-0.45,0.46-1.04,0.68-1.78,0.68c-0.72,0-1.31-0.23-1.76-0.68c-0.46-0.46-0.69-1.04-0.69-1.76
			c0-0.72,0.23-1.31,0.69-1.76c0.46-0.46,1.04-0.68,1.76-0.68c0.73,0,1.33,0.23,1.78,0.68
			C314.95,104.44,315.17,105.03,315.17,105.75z"/>
		<path class="st2" d="M328.48,108.51h-7.27v-2.06h1.78c-0.82-0.38-1.23-1.02-1.23-1.92c0-1.5,0.72-2.25,2.16-2.25h4.56v2.01h-3.38
			c-0.4,0-0.6,0.22-0.6,0.67c0,0.99,0.42,1.49,1.25,1.49h2.74V108.51z M330.64,98.63h-4.89v-27.1c0-1.29,0.54-2.41,1.63-3.36
			c1.09-0.75,2.17-1.5,3.26-2.26V98.63z"/>
		<path class="st2" d="M367.48,102.06c0,1.98-1.33,3.84-4,5.56c-2.43,1.57-4.71,2.35-6.84,2.35c-2.83,0-5.3-0.83-7.41-2.49
			c-2.27-1.79-3.41-4.06-3.41-6.81c0-2.69,1.01-4.75,3.02-6.19c0.62-0.45,1.01-0.67,1.17-0.67c0.02,0.02,0.02,0.03,0.02,0.05v6.98
			c0,2.3,2.13,3.45,6.38,3.45c1.57,0,2.89-0.24,3.96-0.72c1.45-0.62,2.18-1.62,2.18-2.97v-7.91h-4.92c-1.29,0-2.36-0.53-3.2-1.58
			c-0.84-1.06-1.26-2.31-1.26-3.77c0-1.41,0.45-2.66,1.37-3.74c0.91-1.09,2.34-1.63,4.29-1.63c0.35,0,0.9,0.02,1.64,0.05
			c0.74,0.03,1.31,0.05,1.69,0.05c2.32,0,4.08-0.71,5.3-2.14V102.06z M357.65,72.61c0,0.72-0.23,1.31-0.68,1.76
			c-0.46,0.46-1.04,0.68-1.76,0.68s-1.31-0.23-1.76-0.68c-0.46-0.46-0.69-1.04-0.69-1.76c0-0.74,0.23-1.33,0.69-1.79
			c0.45-0.46,1.04-0.68,1.76-0.68s1.31,0.23,1.76,0.68C357.42,71.27,357.65,71.87,357.65,72.61z M362.56,88.75V85.8h-2.68
			c-1.25,0-1.87,0.46-1.87,1.37c0,1.05,0.62,1.58,1.87,1.58H362.56z M366.02,72.61c0,0.72-0.23,1.31-0.69,1.76
			c-0.45,0.46-1.05,0.68-1.79,0.68c-0.72,0-1.31-0.23-1.76-0.68c-0.45-0.46-0.68-1.04-0.68-1.76c0-0.74,0.23-1.33,0.68-1.79
			c0.46-0.46,1.05-0.68,1.76-0.68c0.74,0,1.33,0.23,1.79,0.68C365.79,71.27,366.02,71.87,366.02,72.61z"/>
		<path class="st2" d="M392.04,96.18c0,0.69-0.22,1.27-0.66,1.74c-0.44,0.47-1,0.71-1.69,0.71h-17.1v-5.76h14.53v-3.05
			c0-0.45-0.24-0.86-0.71-1.23c-0.47-0.38-0.94-0.56-1.4-0.56h-9.67v-7.43c0.37,0.64,0.91,1.21,1.63,1.7
			c0.78,0.54,1.51,0.82,2.18,0.82h7.96c1.44,0,2.62,0.46,3.54,1.37c0.92,0.91,1.38,2.02,1.38,3.33V96.18z"/>
		<path class="st2" d="M410.22,98.63h-10.86V65.91c1.1,0.7,2.2,1.41,3.29,2.11c1.09,0.9,1.63,1.97,1.63,3.24v21.61h5.95V98.63z"/>
		<path class="st2" d="M422.47,98.63h-19.14l3.43-5.76h15.71V98.63z"/>
		<path class="st2" d="M439.67,98.63h-24.05l3.43-5.76h12.28l-0.02-0.65c-0.02-1.1,0.02-1.81,0.12-2.11c0.16-0.5,0.63-1,1.42-1.51
			l3.41-2.16v6.43h3.43V98.63z M435.73,77.02c0,0.72-0.23,1.31-0.68,1.76c-0.46,0.46-1.04,0.68-1.76,0.68
			c-0.74,0-1.33-0.23-1.78-0.68c-0.45-0.46-0.67-1.04-0.67-1.76c0-0.72,0.23-1.31,0.67-1.77s1.04-0.7,1.78-0.7
			c0.72,0,1.31,0.23,1.76,0.7C435.51,75.71,435.73,76.3,435.73,77.02z"/>
		<path class="st2" d="M451.95,98.63h-19.14l3.43-5.76h15.71V98.63z"/>
		<path class="st2" d="M470.63,94.93c0,0.8-0.12,1.54-0.36,2.23c-0.32,0.97-0.81,1.46-1.46,1.46h-23.72l3.43-5.76h17.2v-3.62h-4.92
			c-1.26,0-2.34-0.53-3.22-1.61c-0.83-1.02-1.25-2.21-1.25-3.55c0-1.54,0.45-2.85,1.36-3.93s2.28-1.63,4.14-1.63
			c0.37,0,0.92,0.02,1.68,0.06c0.75,0.04,1.33,0.06,1.73,0.06c2.29,0,4.09-0.73,5.4-2.18V94.93z M465.71,85.32v-2.95h-3
			c-1.09,0-1.63,0.53-1.63,1.58c0,0.91,0.51,1.37,1.53,1.37H465.71z M466.19,68.91c0,0.72-0.23,1.31-0.68,1.76
			c-0.46,0.46-1.04,0.68-1.76,0.68c-0.74,0-1.33-0.23-1.79-0.68c-0.46-0.46-0.69-1.04-0.69-1.76c0-0.72,0.23-1.31,0.69-1.76
			c0.45-0.46,1.05-0.68,1.79-0.68c0.72,0,1.31,0.23,1.76,0.68C465.97,67.6,466.19,68.19,466.19,68.91z"/>
	</g>
	<g>
		<path class="st2" d="M206.67,37.17c0-5.26,0-6.23-0.07-7.34c-0.07-1.18-0.35-1.73-1.49-1.97c-0.28-0.07-0.87-0.1-1.35-0.1
			c-0.38,0-0.59-0.07-0.59-0.31s0.24-0.31,0.76-0.31c0.93,0,1.94,0.03,2.8,0.03c0.9,0.03,1.7,0.07,2.18,0.07
			c1.11,0,7.99,0,8.65-0.03c0.66-0.07,1.21-0.14,1.49-0.21c0.17-0.03,0.38-0.14,0.55-0.14c0.17,0,0.21,0.14,0.21,0.31
			c0,0.24-0.17,0.66-0.28,2.25c-0.03,0.35-0.1,1.87-0.17,2.28c-0.03,0.17-0.1,0.38-0.35,0.38s-0.31-0.17-0.31-0.48
			c0-0.24-0.03-0.83-0.21-1.25c-0.24-0.62-0.59-1.04-2.32-1.25c-0.59-0.07-4.22-0.14-4.91-0.14c-0.17,0-0.24,0.1-0.24,0.35v8.76
			c0,0.24,0.03,0.38,0.24,0.38c0.76,0,4.74,0,5.54-0.07c0.83-0.07,1.35-0.17,1.66-0.52c0.24-0.28,0.38-0.45,0.55-0.45
			c0.14,0,0.24,0.07,0.24,0.28s-0.14,0.76-0.28,2.53c-0.03,0.69-0.14,2.08-0.14,2.32c0,0.28,0,0.66-0.31,0.66
			c-0.24,0-0.31-0.14-0.31-0.31c-0.03-0.35-0.03-0.8-0.14-1.25c-0.17-0.69-0.66-1.21-1.94-1.35c-0.66-0.07-4.08-0.1-4.91-0.1
			c-0.17,0-0.21,0.14-0.21,0.35v2.73c0,1.18-0.03,4.36,0,5.36c0.07,2.39,0.62,2.91,4.15,2.91c0.9,0,2.35,0,3.25-0.42
			c0.9-0.42,1.31-1.14,1.56-2.56c0.07-0.38,0.14-0.52,0.38-0.52c0.28,0,0.28,0.28,0.28,0.62c0,0.8-0.28,3.15-0.45,3.84
			c-0.24,0.9-0.55,0.9-1.87,0.9c-2.6,0-4.5-0.07-5.99-0.1c-1.49-0.07-2.56-0.1-3.6-0.1c-0.38,0-1.14,0-1.97,0.03
			c-0.8,0-1.7,0.07-2.39,0.07c-0.45,0-0.69-0.1-0.69-0.35c0-0.17,0.14-0.28,0.55-0.28c0.52,0,0.93-0.07,1.25-0.14
			c0.69-0.14,0.87-0.9,1-1.9c0.17-1.45,0.17-4.19,0.17-7.37V37.17z"/>
		<path class="st2" d="M225.45,30.52c-0.42-1.28-0.8-2.11-1.28-2.46c-0.38-0.24-1.07-0.31-1.38-0.31c-0.35,0-0.55-0.03-0.55-0.31
			c0-0.24,0.28-0.31,0.76-0.31c1.8,0,3.7,0.1,4.01,0.1s1.83-0.1,3.84-0.1c0.48,0,0.73,0.1,0.73,0.31c0,0.28-0.28,0.31-0.62,0.31
			c-0.28,0-0.62,0-0.87,0.14c-0.31,0.14-0.38,0.38-0.38,0.76c0,0.45,0.35,1.63,0.76,3.18c0.59,2.28,3.81,12.77,4.43,14.71h0.1
			l6.71-18.06c0.35-0.97,0.59-1.25,0.87-1.25c0.38,0,0.55,0.52,1,1.63l7.2,17.44h0.1c0.62-2.32,3.39-11.46,4.6-15.5
			c0.24-0.8,0.35-1.52,0.35-2.01c0-0.55-0.31-1.04-1.66-1.04c-0.35,0-0.59-0.1-0.59-0.31c0-0.24,0.28-0.31,0.8-0.31
			c1.83,0,3.29,0.1,3.6,0.1c0.24,0,1.73-0.1,2.87-0.1c0.38,0,0.62,0.07,0.62,0.28c0,0.24-0.17,0.35-0.48,0.35
			c-0.35,0-0.83,0.03-1.21,0.17c-0.83,0.31-1.21,1.7-1.94,3.67c-1.59,4.36-5.23,15.37-6.92,20.56c-0.38,1.21-0.55,1.63-1,1.63
			c-0.35,0-0.55-0.42-1.07-1.7l-7.2-17.37h-0.07c-0.66,1.76-5.26,14.05-6.75,17.23c-0.66,1.42-0.83,1.83-1.25,1.83
			c-0.35,0-0.48-0.38-0.8-1.28L225.45,30.52z"/>
		<path class="st2" d="M267.46,44.47c-0.17,0-0.24,0.07-0.31,0.28l-1.87,4.74c-0.35,0.87-0.52,1.7-0.52,2.11
			c0,0.62,0.31,1.07,1.38,1.07h0.52c0.42,0,0.52,0.07,0.52,0.28c0,0.28-0.21,0.35-0.59,0.35c-1.11,0-2.6-0.1-3.67-0.1
			c-0.38,0-2.28,0.1-4.08,0.1c-0.45,0-0.66-0.07-0.66-0.35c0-0.21,0.14-0.28,0.42-0.28c0.31,0,0.8-0.03,1.07-0.07
			c1.59-0.21,2.25-1.38,2.94-3.11l8.69-21.46c0.42-1,0.62-1.38,0.97-1.38c0.31,0,0.52,0.31,0.87,1.11
			c0.83,1.9,6.37,15.75,8.58,21.01c1.31,3.11,2.32,3.6,3.05,3.77c0.52,0.1,1.04,0.14,1.45,0.14c0.28,0,0.45,0.03,0.45,0.28
			c0,0.28-0.31,0.35-1.59,0.35c-1.25,0-3.77,0-6.54-0.07c-0.62-0.03-1.04-0.03-1.04-0.28c0-0.21,0.14-0.28,0.48-0.31
			c0.24-0.07,0.48-0.38,0.31-0.8l-2.77-7.13c-0.07-0.17-0.17-0.24-0.35-0.24H267.46z M274.52,42.74c0.17,0,0.21-0.1,0.17-0.21
			l-3.11-8.51c-0.03-0.14-0.07-0.31-0.17-0.31c-0.1,0-0.17,0.17-0.21,0.31l-3.18,8.48c-0.03,0.14,0,0.24,0.14,0.24H274.52z"/>
		<path class="st2" d="M291.68,44.47c-0.17,0-0.24,0.07-0.31,0.28l-1.87,4.74c-0.35,0.87-0.52,1.7-0.52,2.11
			c0,0.62,0.31,1.07,1.38,1.07h0.52c0.42,0,0.52,0.07,0.52,0.28c0,0.28-0.21,0.35-0.59,0.35c-1.11,0-2.6-0.1-3.67-0.1
			c-0.38,0-2.28,0.1-4.08,0.1c-0.45,0-0.66-0.07-0.66-0.35c0-0.21,0.14-0.28,0.42-0.28c0.31,0,0.8-0.03,1.07-0.07
			c1.59-0.21,2.25-1.38,2.94-3.11l8.69-21.46c0.42-1,0.62-1.38,0.97-1.38c0.31,0,0.52,0.31,0.87,1.11
			c0.83,1.9,6.37,15.75,8.58,21.01c1.31,3.11,2.32,3.6,3.05,3.77c0.52,0.1,1.04,0.14,1.45,0.14c0.28,0,0.45,0.03,0.45,0.28
			c0,0.28-0.31,0.35-1.59,0.35c-1.25,0-3.77,0-6.54-0.07c-0.62-0.03-1.04-0.03-1.04-0.28c0-0.21,0.14-0.28,0.48-0.31
			c0.24-0.07,0.48-0.38,0.31-0.8l-2.77-7.13c-0.07-0.17-0.17-0.24-0.35-0.24H291.68z M298.74,42.74c0.17,0,0.21-0.1,0.17-0.21
			l-3.11-8.51c-0.03-0.14-0.07-0.31-0.17-0.31c-0.1,0-0.17,0.17-0.21,0.31l-3.18,8.48c-0.03,0.14,0,0.24,0.14,0.24H298.74z"/>
		<path class="st2" d="M342.65,38.13c0.1,0,0.21-0.07,0.21-0.24v-0.73c0-5.26,0-6.23-0.07-7.34c-0.07-1.18-0.35-1.73-1.49-1.97
			c-0.28-0.07-0.87-0.1-1.35-0.1c-0.38,0-0.59-0.07-0.59-0.31s0.24-0.31,0.73-0.31c1.87,0,4.05,0.1,4.98,0.1
			c0.83,0,3.01-0.1,4.36-0.1c0.48,0,0.73,0.07,0.73,0.31s-0.21,0.31-0.62,0.31c-0.28,0-0.59,0.03-1,0.1
			c-0.93,0.17-1.21,0.76-1.28,1.97c-0.07,1.11-0.07,2.08-0.07,7.34v6.09c0,3.18,0,5.92,0.17,7.41c0.1,0.97,0.31,1.73,1.35,1.87
			c0.48,0.07,1.25,0.14,1.77,0.14c0.38,0,0.55,0.1,0.55,0.28c0,0.24-0.28,0.35-0.69,0.35c-2.25,0-4.43-0.1-5.4-0.1
			c-0.8,0-2.98,0.1-4.33,0.1c-0.48,0-0.73-0.1-0.73-0.35c0-0.17,0.14-0.28,0.55-0.28c0.52,0,0.93-0.07,1.25-0.14
			c0.69-0.14,0.87-0.9,1-1.9c0.17-1.45,0.17-4.19,0.17-7.37v-3.05c0-0.14-0.1-0.21-0.21-0.21h-13.22c-0.1,0-0.21,0.03-0.21,0.21
			v3.05c0,3.18,0,5.92,0.17,7.41c0.1,0.97,0.31,1.73,1.35,1.87c0.48,0.07,1.25,0.14,1.77,0.14c0.38,0,0.55,0.1,0.55,0.28
			c0,0.24-0.28,0.35-0.69,0.35c-2.25,0-4.43-0.1-5.4-0.1c-0.8,0-2.98,0.1-4.36,0.1c-0.45,0-0.69-0.1-0.69-0.35
			c0-0.17,0.14-0.28,0.55-0.28c0.52,0,0.93-0.07,1.25-0.14c0.69-0.14,0.87-0.9,1-1.9c0.17-1.45,0.17-4.19,0.17-7.37v-6.09
			c0-5.26,0-6.23-0.07-7.34c-0.07-1.18-0.35-1.73-1.49-1.97c-0.28-0.07-0.87-0.1-1.35-0.1c-0.38,0-0.59-0.07-0.59-0.31
			s0.24-0.31,0.73-0.31c1.87,0,4.05,0.1,4.98,0.1c0.83,0,3.01-0.1,4.36-0.1c0.48,0,0.73,0.07,0.73,0.31s-0.21,0.31-0.62,0.31
			c-0.28,0-0.59,0.03-1,0.1c-0.93,0.17-1.21,0.76-1.28,1.97c-0.07,1.11-0.07,2.08-0.07,7.34v0.73c0,0.17,0.1,0.24,0.21,0.24H342.65z
			"/>
		<path class="st2" d="M354.75,40.21c0-5.92,3.91-13.57,14.29-13.57c8.62,0,13.98,5.02,13.98,12.94s-5.54,14.19-14.33,14.19
			C358.77,53.78,354.75,46.34,354.75,40.21z M378.18,40.87c0-7.75-4.46-12.56-10.14-12.56c-3.98,0-8.51,2.21-8.51,10.83
			c0,7.2,3.98,12.91,10.62,12.91C372.58,52.05,378.18,50.87,378.18,40.87z"/>
		<path class="st2" d="M395.2,29.07l-5.16,0.14c-2.01,0.07-2.84,0.24-3.36,1c-0.35,0.52-0.52,0.93-0.59,1.21s-0.17,0.42-0.38,0.42
			c-0.24,0-0.31-0.17-0.31-0.55c0-0.55,0.66-3.7,0.73-3.98c0.1-0.45,0.21-0.66,0.42-0.66c0.28,0,0.62,0.35,1.49,0.42
			c1,0.1,2.32,0.17,3.46,0.17h13.7c1.11,0,1.87-0.1,2.39-0.17c0.52-0.1,0.8-0.17,0.93-0.17c0.24,0,0.28,0.21,0.28,0.73
			c0,0.73-0.1,3.11-0.1,4.01c-0.04,0.35-0.1,0.55-0.31,0.55c-0.28,0-0.35-0.17-0.38-0.69l-0.04-0.38c-0.07-0.9-1-1.87-4.08-1.94
			l-4.36-0.1v14.19c0,3.18,0,5.92,0.17,7.41c0.1,0.97,0.31,1.73,1.35,1.87c0.48,0.07,1.25,0.14,1.76,0.14c0.38,0,0.55,0.1,0.55,0.28
			c0,0.24-0.28,0.35-0.66,0.35c-2.28,0-4.46-0.1-5.43-0.1c-0.8,0-2.98,0.1-4.36,0.1c-0.45,0-0.69-0.1-0.69-0.35
			c0-0.17,0.14-0.28,0.55-0.28c0.52,0,0.93-0.07,1.25-0.14c0.69-0.14,0.9-0.9,1-1.9c0.17-1.45,0.17-4.19,0.17-7.37V29.07z"/>
		<path class="st2" d="M415.16,37.17c0-5.26,0-6.23-0.07-7.34c-0.07-1.18-0.35-1.73-1.49-1.97c-0.28-0.07-0.87-0.1-1.35-0.1
			c-0.38,0-0.59-0.07-0.59-0.31s0.24-0.31,0.76-0.31c0.93,0,1.94,0.03,2.8,0.03c0.9,0.03,1.7,0.07,2.18,0.07
			c1.11,0,7.99,0,8.65-0.03c0.66-0.07,1.21-0.14,1.49-0.21c0.17-0.03,0.38-0.14,0.55-0.14c0.17,0,0.21,0.14,0.21,0.31
			c0,0.24-0.17,0.66-0.28,2.25c-0.03,0.35-0.1,1.87-0.17,2.28c-0.03,0.17-0.1,0.38-0.35,0.38s-0.31-0.17-0.31-0.48
			c0-0.24-0.03-0.83-0.21-1.25c-0.24-0.62-0.59-1.04-2.32-1.25c-0.59-0.07-4.22-0.14-4.91-0.14c-0.17,0-0.24,0.1-0.24,0.35v8.76
			c0,0.24,0.03,0.38,0.24,0.38c0.76,0,4.74,0,5.54-0.07c0.83-0.07,1.35-0.17,1.66-0.52c0.24-0.28,0.38-0.45,0.55-0.45
			c0.14,0,0.24,0.07,0.24,0.28s-0.14,0.76-0.28,2.53c-0.04,0.69-0.14,2.08-0.14,2.32c0,0.28,0,0.66-0.31,0.66
			c-0.24,0-0.31-0.14-0.31-0.31c-0.04-0.35-0.04-0.8-0.14-1.25c-0.17-0.69-0.66-1.21-1.94-1.35c-0.66-0.07-4.08-0.1-4.91-0.1
			c-0.17,0-0.21,0.14-0.21,0.35v2.73c0,1.18-0.04,4.36,0,5.36c0.07,2.39,0.62,2.91,4.15,2.91c0.9,0,2.35,0,3.25-0.42
			c0.9-0.42,1.32-1.14,1.56-2.56c0.07-0.38,0.14-0.52,0.38-0.52c0.28,0,0.28,0.28,0.28,0.62c0,0.8-0.28,3.15-0.45,3.84
			c-0.24,0.9-0.55,0.9-1.87,0.9c-2.6,0-4.5-0.07-5.99-0.1c-1.49-0.07-2.56-0.1-3.6-0.1c-0.38,0-1.14,0-1.97,0.03
			c-0.8,0-1.7,0.07-2.39,0.07c-0.45,0-0.69-0.1-0.69-0.35c0-0.17,0.14-0.28,0.55-0.28c0.52,0,0.93-0.07,1.25-0.14
			c0.69-0.14,0.87-0.9,1-1.9c0.17-1.45,0.17-4.19,0.17-7.37V37.17z"/>
		<path class="st2" d="M441.36,43.26c0,4.43,0,6.82,0.73,7.44c0.59,0.52,1.49,0.76,4.19,0.76c1.83,0,3.18-0.03,4.05-0.97
			c0.42-0.45,0.83-1.42,0.9-2.08c0.04-0.31,0.1-0.52,0.38-0.52c0.24,0,0.28,0.17,0.28,0.59c0,0.38-0.24,2.98-0.52,3.98
			c-0.21,0.76-0.38,0.93-2.18,0.93c-2.49,0-4.29-0.07-5.85-0.1c-1.56-0.07-2.8-0.1-4.22-0.1c-0.38,0-1.14,0-1.97,0.03
			c-0.8,0-1.7,0.07-2.39,0.07c-0.45,0-0.69-0.1-0.69-0.35c0-0.17,0.14-0.28,0.55-0.28c0.52,0,0.93-0.07,1.25-0.14
			c0.69-0.14,0.87-0.9,1-1.9c0.17-1.45,0.17-4.19,0.17-7.37v-6.09c0-5.26,0-6.23-0.07-7.34c-0.07-1.18-0.35-1.73-1.49-1.97
			c-0.28-0.07-0.69-0.1-1.14-0.1c-0.38,0-0.59-0.07-0.59-0.31s0.24-0.31,0.76-0.31c1.63,0,3.81,0.1,4.74,0.1
			c0.83,0,3.36-0.1,4.71-0.1c0.48,0,0.73,0.07,0.73,0.31s-0.21,0.31-0.62,0.31c-0.38,0-0.93,0.03-1.35,0.1
			c-0.93,0.17-1.21,0.76-1.28,1.97c-0.07,1.11-0.07,2.08-0.07,7.34V43.26z"/>
		<path class="st2" d="M456.06,52.88c-0.55-0.24-0.66-0.42-0.66-1.18c0-1.9,0.14-3.98,0.17-4.53c0.03-0.52,0.14-0.9,0.42-0.9
			c0.31,0,0.35,0.31,0.35,0.59c0,0.45,0.14,1.18,0.31,1.76c0.76,2.56,2.8,3.5,4.95,3.5c3.11,0,4.64-2.11,4.64-3.95
			c0-1.7-0.52-3.29-3.39-5.54l-1.59-1.25c-3.81-2.98-5.12-5.4-5.12-8.2c0-3.81,3.18-6.54,7.99-6.54c2.25,0,3.7,0.35,4.6,0.59
			c0.31,0.07,0.48,0.17,0.48,0.42c0,0.45-0.14,1.45-0.14,4.15c0,0.76-0.1,1.04-0.38,1.04c-0.24,0-0.35-0.21-0.35-0.62
			c0-0.31-0.17-1.38-0.9-2.28c-0.52-0.66-1.52-1.7-3.77-1.7c-2.56,0-4.12,1.49-4.12,3.56c0,1.59,0.8,2.8,3.67,4.98l0.97,0.73
			c4.19,3.15,5.67,5.54,5.67,8.82c0,2.01-0.76,4.4-3.25,6.02c-1.73,1.11-3.67,1.42-5.5,1.42C459.11,53.78,457.55,53.54,456.06,52.88
			z"/>
	</g>
	<path class="st2" d="M131.19,4.43l-16.37,16.37L98.45,4.43l-7.3,7.3l52.67,53.17l-29,28.99L106,85.06l20.17-20.16L65.7,4.43
		L5.23,64.9l60.47,60.47l16.38-16.37l16.37,16.37l7.5-7.5L53.08,64.9l28.99-28.99l8.83,8.82L70.73,64.9l60.47,60.47l60.47-60.47
		L131.19,4.43z M37.99,64.9l36.54,36.55l-8.83,8.82L20.34,64.9L65.7,19.54l8.83,8.82L37.99,64.9z M85.83,64.9l12.62-12.62
		l12.62,12.62L98.45,77.52L85.83,64.9z M122.37,101.45l36.55-36.55l-36.54-36.55l8.82-8.82l45.37,45.36l-45.37,45.36L122.37,101.45z
		"/>
</g>
</svg>
